<svg aria-hidden="true" style="position: absolute; width: 0; height: 0; overflow: hidden;" version="1.1" xmlns="http://www.w3.org/2000/svg" xmlns:xlink="http://www.w3.org/1999/xlink">
<defs>
<symbol id="icon-header-logo" viewBox="0 0 45 32">
<path fill="#8ab226" d="M12.083 29.93c2.432 0.461 4.009 2.371 6.819 2.029 0.743-0.091 1.735-0.349 2.030-1.025-2.849 0.768-5.096-0.275-7.531-1.173-0.077-1.697-0.293-6.158 0.256-7.453l-1.571-0.054 0.366 0.849c0.062 0.278 0.144 5.531-0.137 6.266-0.207 0.54-0.005-0.387-0.231 0.56z"></path>
<path fill="#757575" d="M43.070 22.545c0.382 0 0.26-0.086 0.289 0.333 0.402-0.629 0.539-1.432 0.791-2.2 0.303-0.924 0.533-1.113 0.625-2.317 0.074-0.965-0.057-1.842-0.675-2.608-0.525-0.65-0.906-0.917-1.028-1.615 0.361-0.49 0.586-0.774 0.557-1.398l-0.376-6.508c-0.819-0.186-2.263-0.336-3.081 0.12 0.716 0.341 1.821-0.567 2.825 0.301 0.482 0.64 0 4.088 0.212 5.772 0.074 0.584 0.176 0.238 0.013 0.882l-0.372 0.701c-1.111-2.881-0.148-3.998-0.509-5.732-0.528 0.767-0.568 4.728 0.882 6.977 0.629 0.976 1.107 0.957 1.155 1.881 0.234 0.292 0.13 0.411 0.212 0.489-0.007 0.828-0.258 1.591-0.55 2.359l-0.97 2.565zM43.359 22.878c-0.028-0.419 0.093-0.333-0.289-0.333-0.341 1.213-1.058 2.29-1.589 3.389-0.279 0.578-0.539 1.101-0.781 1.723l0.529-0.501c0.367 0.416 0.659 0.755 0.866 1.244 0.247 0.586 0.125 0.97 0.507 1.473 0.037-1.785-0.541-1.809-1.23-2.82 0.301-0.633 0.611-1.205 0.941-1.837l0.72-1.443c0.022-0.040 0.042-0.083 0.065-0.122 0.025-0.042 0.055-0.086 0.079-0.124l0.187-0.245c0.24 1.147 0.715 1.558 0.894 2.965 0.137 1.078 0.152 2.469 0.467 3.424 0.467-2.862-1.364-6.14-1.365-6.792z"></path>
<path fill="#8ab226" d="M3.745 12.526c-0.004-0.245-0.107-0.265 0.444-0.259l1.84 0.043 0.46 0.712 0.063-1.237-0.858 0.044-5.694-0.006 0.021 1.266c0.691-0.772-0.005-0.895 2.85-0.772l0.001 6.065c-0.131 1.318-0.509 0.487-0.77 1.063l2.355 0.031c-0.14-0.413-0.211-0.139-0.74-0.596l0.029-6.356z"></path>
<path fill="#757575" d="M33.085 28.718l1.479 0.020c-0.582-0.348-0.499-0.119-0.497-1.352l0.012-4.267c1.095-0.016 1.946-0.024 2.065 1.103 0.061 0.576-0.125 1.006-0.45 1.243l-1.141 0.405c-0.030 0.009-0.086 0.023-0.125 0.044l2.444 2.54c0.738 0.852 1.518 2.027 3.408 1.741-3.128-1.186-2.413-1.938-4.815-4.009 0.027-0.021 1.992-0.805 1.19-2.514-0.516-1.102-2.19-0.827-3.488-0.849 0.392 0.734 0.724 4.992-0.081 5.895z"></path>
<path fill="#757575" d="M9.141 14.257c0.284 0.647 0.821 1.974 0.923 2.74l-2.010-0.035 1.087-2.706zM7.238 13.166c2.569-0.065 1.52 1.14-0.129 4.948-0.379 0.876-0.254 0.797-0.925 1.241l1.456 0.001c-0.575-0.439-0.312-0.7 0.305-2.073l2.233-0.022c0.977 1.917 1.032 4.145 3.733 3.902-2.038-1.031-1.979-0.886-3.239-4.422-0.587-1.647-1.194-4.756-3.433-3.574z"></path>
<path fill="#757575" d="M18.525 23.659c0.498 0.502 0.955 2.121 1.076 2.707l-2.056-0.020 0.98-2.687zM18.38 23.022c-0.157 0.962-0.792 2.067-1.175 3.012-0.186 0.46-0.381 0.919-0.582 1.42-0.315 0.785-0.331 0.867-0.911 1.261l1.357 0.039c-0.372-0.513-0.331-0.28-0.055-1.060 0.166-0.468 0.246-0.54 0.349-1.046l2.436-0.003c0.341 1.909 1.532 4.282 3.729 3.835-1.969-0.56-2.175-0.935-3.219-4.001-0.906-2.659-1.095-4.398-3.444-4.044 0.914 0.26 0.789 0.056 1.515 0.587z"></path>
<path fill="#757575" d="M22.875 26.649c-0.826 0.91-0.558 2.672 1.064 2.877 1.452 0.183 2.707-0.784 2.412-2.243-0.231-1.142-1.692-1.888-2.398-2.454-1.325-1.063 0.767-2.889 1.593-1.134l0.026-0.906c-0.717-0.030-1.372-0.187-1.901 0.185-0.371 0.261-0.747 0.839-0.579 1.534 0.202 0.835 1.978 1.714 2.343 2.184 1.412 1.818-1.489 3.613-2.615 1.773-0.395-0.645-0.167-1.112 0.056-1.815z"></path>
<path fill="#757575" d="M30.524 13.172c0.392 0.673 0.225 0.086 0.326 0.701-0.369 0.465-0.512 0.787-0.759 1.351-0.673 1.539-1.422 3.673-0.672 5.152l-2.112 0.054c1.111 0.211 1.861-0.040 2.385 0.045 1.39 0.225 2.011 0.181 3.452-1.565 1.87-2.266 0.329-2.474-0.134-2.208l0.631 0.092c0.059 0.847 0.009 0.867-0.379 1.588-0.171 0.317-0.143 0.362-0.373 0.618s-0.021 0.011-0.267 0.23c-0.54 0.483-0.814 0.886-1.699 1.167-2.22 0.704-1.474-2.604-1.023-3.75 0.014-0.036 0.034-0.078 0.048-0.114l0.098-0.227c1.362-3.409 1.315-2.822 3.867-3.054-0.479-0.33-1.541-0.14-2.232-0.126 0.241-0.683-0.089-0.057 0.355-0.673l0.505-0.648c0.021-0.027 0.056-0.061 0.077-0.088l0.631-0.986c-0.281 0.125-0.414 0.177-0.666 0.456l-1.122 1.561c-0.315 0.441-0.327 0.33-0.938 0.426z"></path>
<path fill="#757575" d="M14.393 16.575c1.557 1.341 3.96 4.971 5.956 4.132-0.999-0.512-1.484-0.172-2.949-1.843-0.412-0.469-0.723-0.901-1.185-1.325-0.6-0.551-0.861-0.701-1.193-1.34 0.345-0.705 1.641-1.893 2.131-2.496l0.203-0.267c-1.343 0.013-0.452-0.409-1.723 1.34-0.458 0.629-0.943 1.092-1.241 1.798z"></path>
<path fill="#757575" d="M30.539 28.414c-0.614 0.269-1.051 0.21-1.749 0.097l-0.039-2.592c0.646-0.061 1.55-0.211 2.016 0.219l-0.030-0.794c-0.462 0.526-0.76 0.371-1.714 0.348-0.271-0.237-0.178 0.29-0.255-0.632l0.042-1.944c0.635-0.111 1.482-0.123 1.996 0.056 0.292-0.072 0.223-0.108 0.122 0.179l0.077-0.561 0.021-0.005-3.228 0.085c0.227 0.146 0.288 0.173 0.463 0.274 0.055 1.588 0.239 4.437-0.291 5.631l3.214-0.002 0.371-1.309c-0.265 0.578-0.387 0.801-1.018 0.948zM31.006 22.792l-0.077 0.561c0.102-0.287 0.17-0.25-0.122-0.179-0.514-0.179-1.36-0.168-1.996-0.056l-0.042 1.944c0.077 0.922-0.016 0.395 0.255 0.632l-0.089-2.501 1.872-0.020 0.122 0.179c-0.029 0.707-0.058 0.212 0.164 0.373 0.032-0.083 0.148-0.095 0.107-0.513-0.041-0.428 0.001-0.255-0.195-0.42v0zM30.539 28.414l-1.655 0.024 0.012-2.39 1.575-0.026c0.14 0.234 0.093 0.109 0.169 0.487l0.128-0.369c-0.466-0.43-1.371-0.28-2.016-0.219l0.039 2.592c0.698 0.113 1.134 0.172 1.749-0.097z"></path>
<path fill="#757575" d="M38.7 23.155c-0.164-1.976-2.422-2.713-0.631-4.991 0.020-0.026 0.052-0.063 0.072-0.089s0.050-0.065 0.070-0.091l0.142-0.188c0.536-0.683 0.995-1.075 0.88-2.067-0.166-1.437-1.208-2.277-2.037-3.276-0.974-1.174-1.894-2.001-2.001-3.37-0.060 0.889 0.101 1.288 0.526 1.97l1.062 1.627c0.771 0.86 0.271-0.015 1.219 1.459 0.112 0.174 0.19 0.265 0.286 0.378 0.021 0.025 0.057 0.058 0.078 0.083l0.482 0.682c0.049 0.11 0.142 0.455 0.151 0.579 0.061 0.845-0.361 1.151-0.87 1.846l-0.214 0.296c-0.022 0.028-0.054 0.066-0.077 0.094-1.798 2.263 0.212 3.326 0.862 5.057z"></path>
<path fill="#757575" d="M26.284 20.022c1.847 0.142-0.010-0.746 1.466-4.662 0.698-1.852 1.323-2.833 2.112-4.307-1.328 1.481-3.208 5.718-3.921 8.204l-0.084 0.252c-0.133 0.297 0.062 0.579 0.427 0.513z"></path>
<path fill="#757575" d="M35.451 4.832l0.215 0.24c0.050-1.018 0.898-2.412 1.493-2.839 0.73-0.525 2.851-0.884 3.237-1.225-0.613-0.691-1.593-0.546-2.459-0.383 0.964-0.753 1.052-0.283 2.093-0.392-1.335-0.829-3.233 0.763-3.526 1.577 1.093-0.427 0.9-1.095 2.855-0.987l-0.245 0.162c-0.854 0.379-3.551 0.98-3.663 3.847zM35.666 5.072l-0.215-0.24c-0.261 0.4-0.347 0.668-0.012 1.123l0.227-0.883z"></path>
<path fill="#757575"  d="M13.529 14.53l-0.009 4.46c-0.195 0.138-0.256 0.208-0.55 0.322l1.497 0.091c-0.764-1.265-0.459-5.302-0.045-5.927l-1.171-0.042 0.279 1.096z"></path>
<path fill="#757575"  d="M34.892 12.136c-0.535-0.788-1.035-1.767-0.785-3.101 0.113-0.602 0.354-0.861 0.755-1.257 1.211-1.197 3.044-1.075 4.65-2.368l0.443-0.388c0.335-0.349 0.645-0.818 0.819-1.542-0.619 0.957-0.778 1.423-1.939 2.081-0.937 0.531-2.098 0.694-3.048 1.13-0.858 0.393-1.127 0.551-1.48 1.204l-0.36 1.133c-0.18 1.52 0.296 2.304 0.945 3.11z"></path>
<path fill="#757575"  d="M37.259 10.539c-0.638-2.709 0.038-2.526 2.313-4.064l0.267-0.226c0.76-0.709 1.321-1.31 1.589-2.479-0.825 1.425-0.666 1.24-2.042 2.337-0.796 0.634-3.971 2.026-2.126 4.431z"></path>
<path fill="#757575"  d="M38.826 29.155c0.007-1.299-0.104-2.432 0.001-3.765 0.084-1.073 0.373-2.153 0.416-3.182-0.623 1.169-0.849 4.511-0.696 6.062 0.013 0.134 0.026 0.327 0.063 0.45 0.086 0.288 0.139 0.311 0.217 0.435z"></path>
<path fill="#757575"  d="M40.445 14.055c-0.109-0.434-0.158-0.599-0.464-0.882l-1.388-1.623c-0.26-0.34-0.45-0.683-0.635-0.93 0.42 1.485 1.109 2.255 1.714 2.685 0.591 0.42 0.239 0.377 0.772 0.75z"></path>
<path fill="#8ab226"  d="M39.349 19.045c1.256-0.852 3.059-2.084 5.16-1.502 0.242 0.25 0.316-0.588-0.211-0.488-0.792-0.234-1.858 0.105-2.569 0.28-0.843 0.209-0.532 0.221-1.057 0.593l-0.743 0.422c-0.185 0.154-0.459 0.532-0.579 0.695z"></path>
<path fill="#757575"  d="M39.794 18.983c-0.359 0.024-0.019-0.005-0.38 0.017-0.059-0.162-0.019-0.021-0.233-0.891l-0.062-0.14c0.186 1.22-0.777 2.588 0.411 4.106-0.73-1.396-0.539-2.111-0.207-2.77 0.158-0.108 0.306-0.21 0.471-0.322z"></path>
<path fill="#757575"  d="M21.814 19.031c-0.614 0.269-1.051 0.21-1.748 0.097l-0.039-2.592c0.646-0.061 1.55-0.211 2.016 0.219l-0.030-0.794c-0.462 0.526-0.76 0.371-1.714 0.348-0.272-0.237-0.178 0.29-0.255-0.632l0.042-1.944c0.635-0.111 1.482-0.123 1.996 0.056 0.292-0.072 0.223-0.108 0.122 0.179l0.076-0.561 0.021-0.005-3.228 0.085c0.227 0.146 0.288 0.173 0.463 0.274 0.055 1.588 0.239 4.436-0.291 5.631l3.214-0.002 0.371-1.309c-0.264 0.578-0.387 0.801-1.018 0.948zM22.281 13.409l-0.076 0.561c0.102-0.287 0.17-0.251-0.122-0.179-0.514-0.179-1.361-0.168-1.996-0.056l-0.042 1.944c0.077 0.922-0.016 0.395 0.255 0.632l-0.089-2.501 1.872-0.020 0.122 0.179c-0.029 0.707-0.058 0.212 0.164 0.373 0.032-0.083 0.148-0.095 0.107-0.513-0.041-0.428 0.001-0.255-0.195-0.42v0zM21.814 19.031l-1.655 0.024 0.012-2.39 1.575-0.026c0.14 0.234 0.093 0.109 0.169 0.487l0.128-0.369c-0.466-0.43-1.371-0.28-2.016-0.219l0.039 2.592c0.698 0.113 1.134 0.172 1.748-0.097z"></path>
</symbol>
<symbol id="icon-header-menu-close" viewBox="0 0 32 32">
<path  d="M31.439 3.166l-3.166-3.166-12.554 12.552-12.552-12.552-3.166 3.166 12.552 12.552-12.552 12.554 3.166 3.166 12.552-12.554 12.554 12.554 3.166-3.166-12.554-12.554 12.554-12.552z"></path>
</symbol>
<symbol id="icon-header-menu-open" viewBox="0 0 48 32">
<path d="M0 5.334v-5.334h48v5.334h-48zM0 18.666h48v-5.332h-48v5.332zM0 32h48v-5.334h-48v5.334z"></path>
</symbol>
<symbol id="icon-contacts-email" viewBox="0 0 32 32">
<path  d="M26.667 5.333h-21.333c-1.467 0-2.652 1.2-2.652 2.667l-0.014 16c0 1.467 1.2 2.667 2.667 2.667h21.333c1.467 0 2.667-1.2 2.667-2.667v-16c0-1.467-1.2-2.667-2.667-2.667zM26.133 11.001l-9.426 5.892c-0.201 0.126-0.446 0.2-0.708 0.2s-0.506-0.075-0.713-0.204l0.006 0.003-9.426-5.892c-0.336-0.201-0.557-0.562-0.557-0.975 0-0.625 0.507-1.132 1.132-1.132 0.233 0 0.449 0.070 0.629 0.19l-0.004-0.003 8.933 5.586 8.933-5.588c0.176-0.118 0.392-0.188 0.624-0.188 0.625 0 1.132 0.507 1.132 1.132 0 0.413-0.221 0.775-0.552 0.972l-0.005 0.003z"></path>
</symbol>
<symbol id="icon-contacts-phone" viewBox="0 0 32 32">
<path  d="M24.882 19.774l-3.268-0.373c-0.090-0.011-0.194-0.018-0.3-0.018-0.707 0-1.347 0.287-1.81 0.75l-2.368 2.368c-3.669-1.894-6.585-4.81-8.427-8.372l-0.051-0.108 2.382-2.377c0.463-0.463 0.75-1.103 0.75-1.81 0-0.106-0.006-0.21-0.019-0.312l0.001 0.012-0.373-3.243c-0.155-1.287-1.24-2.276-2.557-2.276-0.001 0-0.002 0-0.003 0h-2.226c-1.454 0-2.663 1.209-2.574 2.661 0.683 10.987 9.47 19.762 20.444 20.444 1.452 0.089 2.663-1.12 2.663-2.574v-2.226c0-0.004 0-0.008 0-0.012 0-1.308-0.985-2.386-2.253-2.532l-0.012-0.001z"></path>
</symbol>
<symbol id="icon-contacts-person" viewBox="0 0 32 32">
<path d="M16 16c2.946 0 5.333-2.388 5.333-5.333s-2.388-5.333-5.333-5.333v0c-2.946 0-5.333 2.388-5.333 5.333s2.388 5.333 5.333 5.333v0zM16 18.667c-3.561 0-10.667 1.787-10.667 5.333v1.333c0 0.732 0.599 1.333 1.333 1.333h18.667c0.732 0 1.333-0.601 1.333-1.333v-1.333c0-3.547-7.108-5.333-10.667-5.333z"></path>
</symbol>
<symbol id="icon-social-facebook" viewBox="0 0 32 32">
<path d="M21.328 5.312h2.923v-5.088c-1.232-0.143-2.66-0.224-4.108-0.224-0.052 0-0.104 0-0.156 0l0.008-0c-4.213 0-7.099 2.65-7.099 7.52v4.48h-4.646v5.688h4.646v14.312h5.699v-14.31h4.459l0.707-5.688h-5.168v-3.922c0-1.643 0.443-2.768 2.734-2.768z"></path>
</symbol>
<symbol id="icon-social-instagram" viewBox="0 0 32 32">
<path d="M31.968 9.408c-0.074-1.701-0.349-2.869-0.742-3.882-0.424-1.111-1.054-2.059-1.85-2.837l-0.001-0.001c-0.78-0.792-1.724-1.419-2.778-1.827l-0.054-0.018c-1.019-0.394-2.181-0.667-3.882-0.742-1.712-0.082-2.256-0.101-6.602-0.101-4.344 0-4.888 0.019-6.595 0.094-1.699 0.074-2.869 0.349-3.88 0.742-1.112 0.424-2.060 1.054-2.839 1.85l-0.001 0.001c-0.791 0.78-1.418 1.724-1.825 2.778l-0.018 0.054c-0.395 1.019-0.669 2.181-0.744 3.882-0.082 1.712-0.101 2.256-0.101 6.602 0 4.344 0.019 4.888 0.094 6.595 0.075 1.701 0.35 2.869 0.744 3.882 0.426 1.11 1.055 2.057 1.849 2.837l0.001 0.001c0.8 0.813 1.77 1.443 2.832 1.843 1.019 0.395 2.182 0.67 3.882 0.744 1.707 0.075 2.251 0.094 6.595 0.094 4.346 0 4.89-0.019 6.595-0.094 1.701-0.074 2.869-0.349 3.882-0.742 2.157-0.85 3.833-2.526 4.664-4.628l0.019-0.055c0.394-1.019 0.669-2.182 0.744-3.882 0.075-1.707 0.093-2.251 0.093-6.595s-0.006-4.888-0.080-6.595zM29.088 22.474c-0.070 1.563-0.333 2.406-0.55 2.97-0.552 1.399-1.64 2.486-3.004 3.024l-0.036 0.012c-0.56 0.219-1.411 0.482-2.968 0.55-1.688 0.075-2.194 0.094-6.464 0.094-4.269 0-4.782-0.019-6.464-0.094-1.563-0.069-2.406-0.331-2.97-0.55-0.721-0.269-1.334-0.676-1.836-1.192l-0.001-0.001c-0.517-0.503-0.924-1.117-1.184-1.803l-0.011-0.034c-0.218-0.563-0.48-1.413-0.549-2.97-0.075-1.688-0.094-2.195-0.094-6.464 0-4.27 0.019-4.784 0.094-6.464 0.069-1.563 0.331-2.406 0.549-2.97 0.269-0.722 0.678-1.337 1.198-1.837l0.002-0.002c0.504-0.517 1.119-0.923 1.806-1.182l0.034-0.011c0.56-0.219 1.411-0.48 2.968-0.55 1.688-0.074 2.195-0.093 6.464-0.093 4.275 0 4.782 0.019 6.464 0.093 1.563 0.069 2.406 0.331 2.97 0.55 0.693 0.256 1.325 0.662 1.837 1.194 0.531 0.52 0.938 1.144 1.195 1.84 0.218 0.56 0.48 1.411 0.549 2.968 0.075 1.688 0.094 2.194 0.094 6.464 0 4.269-0.019 4.768-0.094 6.458z"></path>
<path d="M16.059 7.782c-4.539 0.002-8.218 3.682-8.219 8.221v0c0.091 4.471 3.737 8.060 8.221 8.060s8.13-3.589 8.221-8.052l0-0.009c-0.001-4.54-3.681-8.22-8.221-8.221h-0zM16.059 21.334c-2.945-0-5.332-2.388-5.332-5.333s2.388-5.333 5.333-5.333c0 0 0.001 0 0.001 0h-0c2.946 0 5.334 2.388 5.334 5.334s-2.388 5.334-5.334 5.334v0zM26.525 7.458c0 1.060-0.86 1.92-1.92 1.92s-1.92-0.86-1.92-1.92v0c0-1.060 0.86-1.92 1.92-1.92s1.92 0.86 1.92 1.92v0z"></path>
</symbol>
<symbol id="icon-modal-check" viewBox="0 0 42 32">
<path  d="M6.262 15.206l-0.221-0.211-0.221 0.208-3.085 2.925 0.243 0.234 11.408 10.88 0.221-0.211 24.256-23.139-0.243-0.23-3.043-2.902-0.221 0.211-20.97 19.987-8.125-7.75z"></path>
</symbol>
</defs>
</svg>
